<svg width="350" height="350" viewBox="0 0 350 350" fill="none" xmlns="http://www.w3.org/2000/svg">
<path opacity="0.5" d="M246.957 131.834C255.278 133.944 260.154 142.358 257.848 150.626L242.9 204.222C232.408 241.843 193.213 264.558 155.354 254.958L95.5487 239.793C57.6903 230.193 35.5054 191.913 45.9974 154.292L60.9446 100.696C63.2505 92.4282 71.865 87.4357 80.1855 89.5456L246.957 131.834Z" fill="#313338"/>
<path opacity="0.5" d="M246.957 137.274C255.278 139.384 260.154 147.797 257.848 156.066L242.9 209.662C232.408 247.283 193.213 269.998 155.354 260.398L121.92 251.92C84.0613 242.32 61.8764 204.04 72.3684 166.419L87.3156 112.823C89.6216 104.555 98.236 99.5626 106.557 101.672L246.957 137.274Z" fill="#313338"/>
<path opacity="0.7" d="M123.589 231.933C120.446 225.843 122.927 218.546 129.131 215.635L139.241 210.891C165.298 198.663 197.122 209.485 210.323 235.062V235.062C223.524 260.64 213.102 291.287 187.046 303.514L176.936 308.258C170.732 311.17 163.154 308.593 160.011 302.503L123.589 231.933Z" fill="#313338"/>
<path opacity="0.1" d="M83.7739 196.541L91.5697 199.896C111.408 208.435 121.179 231.689 113.394 251.835C105.609 271.982 83.2151 281.391 63.3766 272.852L55.5809 269.497C51.0506 267.547 48.8194 262.237 50.5972 257.636L72.3523 201.34C74.1301 196.739 79.2437 194.591 83.7739 196.541Z" fill="#313338" stroke="black"/>
<path opacity="0.5" d="M243.109 71.7844C244.015 66.3806 249.141 62.6696 254.557 63.4955L264.046 64.9423C286.43 68.3556 301.54 89.2256 297.795 111.557V111.557C294.05 133.888 272.868 149.224 250.484 145.811L240.995 144.364C235.578 143.538 231.922 138.488 232.828 133.084L243.109 71.7844Z" fill="#313338"/>
<path opacity="0.6" d="M245.225 152.258C239.998 152.469 235.573 148.404 235.341 143.178V143.178C234.158 116.526 254.808 94.0477 281.464 92.9715L285.466 92.8099C312.122 91.7337 334.691 112.467 335.875 139.119V139.119C336.107 144.345 332.058 148.752 326.831 148.963L245.225 152.258Z" fill="#313338"/>
</svg>
