{
  "asset": {
    "version": "2.0",
    "generator": "THREE.GLTFExporter"
  },
  "scenes": [
    {
      "nodes": [
        0
      ]
    }
  ],
  "scene": 0,
  "nodes": [
    {
      "children": [
        6
      ],
      "matrix": [
        0.01,
        0,
        0,
        0,
        0,
        0.01,
        0,
        0,
        0,
        0,
        0.01,
        0,
        0,
        0,
        0,
        1
      ]
    },
    {
      "matrix": [
        1,
        0,
        0,
        0,
        0,
        1,
        0,
        0,
        0,
        0,
        1,
        0,
        2.744918831325028,
        -4.1526859245770655,
        0,
        1
      ],
      "name": "body",
      "mesh": 0
    },
    {
      "name": "Whale",
      "children": [
        1
      ]
    },
    {
      "matrix": [
        0.5883484054145521,
        0.39223227027636803,
        -0.7071067811865475,
        0,
        -0.554700196225229,
        0.8320502943378437,
        0,
        0,
        0.588348405414552,
        0.392232270276368,
        0.7071067811865476,
        0,
        0,
        0,
        0,
        1
      ],
      "name": "Directional Light",
      "extensions": {
        "KHR_lights_punctual": {
          "light": 0
        }
      }
    },
    {
      "matrix": [
        0.9998848554759711,
        4.336808689942018e-19,
        -0.015174840684384681,
        0,
        -0.0025159611933880752,
        0.9861597023643891,
        -0.16577910414721397,
        0,
        0.014964816372739819,
        0.16579819490145076,
        0.9860461514748439,
        0,
        13.980959978011196,
        165.46026306129946,
        986.7637945914261,
        1
      ],
      "camera": 0
    },
    {
      "matrix": [
        1,
        0,
        0,
        0,
        0,
        1,
        0,
        0,
        0,
        0,
        1,
        0,
        0,
        1,
        0,
        1
      ],
      "name": "Default Ambient Light"
    },
    {
      "name": "Scene 1",
      "children": [
        2,
        3,
        4,
        5
      ]
    }
  ],
  "bufferViews": [
    {
      "buffer": 0,
      "byteOffset": 0,
      "byteLength": 7464,
      "target": 34962,
      "byteStride": 12
    },
    {
      "buffer": 0,
      "byteOffset": 7464,
      "byteLength": 7464,
      "target": 34962,
      "byteStride": 12
    },
    {
      "buffer": 0,
      "byteOffset": 14928,
      "byteLength": 4976,
      "target": 34962,
      "byteStride": 8
    },
    {
      "buffer": 0,
      "byteOffset": 19904,
      "byteLength": 8952,
      "target": 34963
    }
  ],
  "buffers": [
    {
      "byteLength": 28856,
      "uri": "data:application/octet-stream;base64,"
    }
  ],
  "accessors": [
    {
      "bufferView": 0,
      "componentType": 5126,
      "count": 622,
      "max": [
        5.599999904632568,
        5.607999801635742,
        6
      ],
      "min": [
        -5.599999904632568,
        -5.607999801635742,
        0
      ],
      "type": "VEC3"
    },
    {
      "bufferView": 1,
      "componentType": 5126,
      "count": 622,
      "max": [
        0.9997848868370056,
        1,
        1
      ],
      "min": [
        -1,
        -1,
        -1
      ],
      "type": "VEC3"
    },
    {
      "bufferView": 2,
      "componentType": 5126,
      "count": 622,
      "max": [
        1,
        1
      ],
      "min": [
        0,
        0
      ],
      "type": "VEC2"
    },
    {
      "bufferView": 3,
      "componentType": 5125,
      "count": 2238,
      "max": [
        621
      ],
      "min": [
        0
      ],
      "type": "SCALAR"
    }
  ],
  "meshes": [
    {
      "primitives": [
        {
          "mode": 4,
          "attributes": {
            "POSITION": 0,
            "NORMAL": 1,
            "TEXCOORD_0": 2
          },
          "extras": {
            "parameters": {
              "width": 11.2,
              "subdivisions": 12,
              "roundness": 0,
              "extrudeBevelSize": 4,
              "extrudeBevelSegments": 2,
              "windingRule": 0,
              "height": 11.216000000000001,
              "type": "VectorGeometry",
              "shape": {
                "points": [
                  {
                    "id": "f7f8e907-35e0-4b11-814b-9997eae65bf3",
                    "fi": 0,
                    "data": {
                      "areControlsDirectionsMirrored": true,
                      "roundness": 0,
                      "controlNext": {
                        "position": [
                          0,
                          -5.6080000000000005
                        ]
                      },
                      "controlPrevious": {
                        "position": [
                          1.0133333333333336,
                          -5.6080000000000005
                        ]
                      },
                      "position": [
                        0,
                        -5.6080000000000005
                      ]
                    }
                  },
                  {
                    "id": "0a9f0d4c-b4ac-4a3a-97cd-e2bde4da2df5",
                    "fi": 1,
                    "data": {
                      "areControlsDirectionsMirrored": true,
                      "roundness": 0,
                      "controlNext": {
                        "position": [
                          -5.6,
                          -5.6080000000000005
                        ]
                      },
                      "controlPrevious": {
                        "position": [
                          -5.6,
                          -5.6080000000000005
                        ]
                      },
                      "position": [
                        -5.6,
                        -5.6080000000000005
                      ]
                    }
                  },
                  {
                    "id": "17e1ae50-6c7e-436f-a024-290fc29ae101",
                    "fi": 2,
                    "data": {
                      "areControlsDirectionsMirrored": true,
                      "roundness": 0,
                      "controlNext": {
                        "position": [
                          -5.6,
                          5.6080000000000005
                        ]
                      },
                      "controlPrevious": {
                        "position": [
                          -5.6,
                          5.6080000000000005
                        ]
                      },
                      "position": [
                        -5.6,
                        5.6080000000000005
                      ]
                    }
                  },
                  {
                    "id": "cc041886-33ee-43d0-b401-c6cc8172805c",
                    "fi": 3,
                    "data": {
                      "areControlsDirectionsMirrored": true,
                      "roundness": 0,
                      "controlNext": {
                        "position": [
                          1.0133333333333336,
                          5.6080000000000005
                        ]
                      },
                      "controlPrevious": {
                        "position": [
                          0,
                          5.6080000000000005
                        ]
                      },
                      "position": [
                        0,
                        5.6080000000000005
                      ]
                    }
                  },
                  {
                    "id": "68fff8a2-bd29-4375-86ee-0e94a336deb0",
                    "fi": 4,
                    "data": {
                      "areControlsDirectionsMirrored": true,
                      "roundness": 0,
                      "controlNext": {
                        "position": [
                          3.666666666666666,
                          4.341333333333333
                        ]
                      },
                      "controlPrevious": {
                        "position": [
                          1.9493333333333336,
                          5.354666666666667
                        ]
                      },
                      "position": [
                        2.808,
                        4.847999999999999
                      ]
                    }
                  },
                  {
                    "id": "6f52e866-e20e-4f70-a4f9-32847b97694a",
                    "fi": 5,
                    "data": {
                      "areControlsDirectionsMirrored": true,
                      "roundness": 0,
                      "controlNext": {
                        "position": [
                          5.349333333333334,
                          1.9413333333333327
                        ]
                      },
                      "controlPrevious": {
                        "position": [
                          4.346666666666668,
                          3.658666666666666
                        ]
                      },
                      "position": [
                        4.848000000000001,
                        2.799999999999999
                      ]
                    }
                  },
                  {
                    "id": "cfddf916-095f-4708-b194-3a06cbd320e8",
                    "fi": 6,
                    "data": {
                      "areControlsDirectionsMirrored": true,
                      "roundness": 0,
                      "controlNext": {
                        "position": [
                          5.6,
                          -1.0213333333333328
                        ]
                      },
                      "controlPrevious": {
                        "position": [
                          5.6,
                          1.0053333333333327
                        ]
                      },
                      "position": [
                        5.6,
                        -0.007999999999999119
                      ]
                    }
                  },
                  {
                    "id": "947a566a-ef5b-41d4-8fdf-6f19aec3391a",
                    "fi": 7,
                    "data": {
                      "areControlsDirectionsMirrored": true,
                      "roundness": 0,
                      "controlNext": {
                        "position": [
                          4.346666666666668,
                          -3.674666666666667
                        ]
                      },
                      "controlPrevious": {
                        "position": [
                          5.349333333333334,
                          -1.9573333333333345
                        ]
                      },
                      "position": [
                        4.848000000000001,
                        -2.8160000000000007
                      ]
                    }
                  },
                  {
                    "id": "fcc2e005-5768-4e63-865e-0a45c8f0ef42",
                    "fi": 8,
                    "data": {
                      "areControlsDirectionsMirrored": true,
                      "roundness": 0,
                      "controlNext": {
                        "position": [
                          1.9493333333333336,
                          -5.357333333333333
                        ]
                      },
                      "controlPrevious": {
                        "position": [
                          3.666666666666666,
                          -4.354666666666667
                        ]
                      },
                      "position": [
                        2.808,
                        -4.856
                      ]
                    }
                  }
                ],
                "roundness": 0,
                "shapeHoles": [],
                "isClosed": true
              },
              "depth": 6
            },
            "shape": {
              "points": [
                0,
                -5.6080000000000005,
                1.0133333333333336,
                -5.6080000000000005,
                0,
                -5.6080000000000005,
                0,
                -5.6,
                -5.6080000000000005,
                -5.6,
                -5.6080000000000005,
                -5.6,
                -5.6080000000000005,
                0,
                -5.6,
                5.6080000000000005,
                -5.6,
                5.6080000000000005,
                -5.6,
                5.6080000000000005,
                0,
                0,
                5.6080000000000005,
                0,
                5.6080000000000005,
                1.0133333333333336,
                5.6080000000000005,
                0,
                2.808,
                4.847999999999999,
                1.9493333333333336,
                5.354666666666667,
                3.666666666666666,
                4.341333333333333,
                0,
                4.848000000000001,
                2.799999999999999,
                4.346666666666668,
                3.658666666666666,
                5.349333333333334,
                1.9413333333333327,
                0,
                5.6,
                -0.007999999999999119,
                5.6,
                1.0053333333333327,
                5.6,
                -1.0213333333333328,
                0,
                4.848000000000001,
                -2.8160000000000007,
                5.349333333333334,
                -1.9573333333333345,
                4.346666666666668,
                -3.674666666666667,
                0,
                2.808,
                -4.856,
                3.666666666666666,
                -4.354666666666667,
                1.9493333333333336,
                -5.357333333333333,
                0
              ],
              "shapeHoles": [],
              "isClosed": true,
              "roundness": 0
            },
            "type": "VectorGeometry"
          },
          "indices": 3
        }
      ]
    }
  ],
  "extensions": {
    "KHR_lights_punctual": {
      "lights": [
        {
          "name": "Directional Light",
          "color": [
            1,
            1,
            1
          ],
          "intensity": 0.7,
          "type": "directional"
        }
      ]
    }
  },
  "cameras": [
    {
      "type": "orthographic",
      "orthographic": {
        "xmag": 0.23423467271819864,
        "ymag": 0.12150923647256556,
        "zfar": 100000,
        "znear": 0
      }
    }
  ],
  "extensionsUsed": [
    "KHR_lights_punctual"
  ]
}